<svg width="192" height="192" viewBox="0 0 259.2 192" fill="none" xmlns="http://www.w3.org/2000/svg"><path d="M58.906 191.366V92.803L27.85 64.848 0 49.325v124.646c0 9.629 7.92 17.395 17.674 17.395z" fill="#4285F4"/><path d="M200.294 191.366h41.232c9.782 0 17.674 -7.795 17.674 -17.395V49.325L227.654 67.104l-27.36 25.699z" fill="#34A853"/><path d="m58.906 92.813 -4.224 -38.515 4.224 -36.854L129.6 69.619l70.685 -52.176 4.733 34.867 -4.733 40.502 -70.685 52.176z" fill="#EA4335"/><path d="M200.294 17.443v75.36L259.2 49.325V26.141c0 -21.504 -24.95 -33.773 -42.413 -20.87z" fill="#FBBC04"/><path d="m0 49.325 27.091 19.997 31.814 23.482v-75.36L42.413 5.27C24.922 -7.632 0 4.627 0 26.141z" fill="#C5221F"/></svg>